<svg version="1.1" xmlns="http://www.w3.org/2000/svg" xmlns:xlink="http://www.w3.org/1999/xlink" width="48" height="48"><defs><linearGradient x1="11.67152" y1="11.67152" x2="63.09651" y2="63.09651" gradientUnits="userSpaceOnUse" id="color-1"><stop offset="0" stop-color="#000000" stop-opacity="0.3"></stop><stop offset="1" stop-color="#000000" stop-opacity="0"></stop></linearGradient><filter id="dropshadow-base"><feColorMatrix type="matrix" values="0 0 0 0 0  0 0 0 0 0  0 0 0 0 0  0 0 0 .8 0"></feColorMatrix> <feOffset dx="0" dy="1"></feOffset> <feGaussianBlur stdDeviation="1"></feGaussianBlur> <feComposite in="SourceGraphic"></feComposite></filter><filter id="dropshadow-banner" x="-10%" y="-10%" width="120%" height="130%"><feColorMatrix type="matrix" values="0 0 0 0 0  0 0 0 0 0  0 0 0 0 0  0 0 0 .4 0"></feColorMatrix> <feOffset dx="0" dy="1"></feOffset> <feGaussianBlur stdDeviation="0.5"></feGaussianBlur> <feComposite in="SourceGraphic"></feComposite></filter></defs><g fill="none" fill-rule="nonzero" stroke="none" stroke-width="none" stroke-linecap="butt" stroke-linejoin="miter" stroke-miterlimit="10" stroke-dasharray="" stroke-dashoffset="0" font-family="none" font-weight="none" font-size="none" text-anchor="none" style="mix-blend-mode: normal"><path d="M2,24c0,-12.15026 9.84974,-22 22,-22c12.15026,0 22,9.84974 22,22c0,12.15026 -9.84974,22 -22,22c-12.15026,0 -22,-9.84974 -22,-22z" id="base 1 17" fill="#00826b" stroke-width="1"></path><path d="M32.71773,15.28679l12.88689,12.88689c-1.69095,8.80521 -8.63127,15.7438 -17.4374,17.43217l-12.88356,-12.88356c-2.23193,-2.23193 -3.61214,-5.31656 -3.61214,-8.7223c0,-6.80532 5.51083,-12.32848 12.31615,-12.32848c3.41037,0 6.49682,1.38204 8.73005,3.61527z" fill="url(#color-1)" stroke-width="1"></path><path d="M28.31497,22.76715c1.02326,0 1.84927,-0.82601 1.84927,-1.84927c0,-1.02326 -0.82601,-1.84927 -1.84927,-1.84927c-1.02326,0 -1.84927,0.82601 -1.84927,1.84927c0,1.02326 0.82601,1.84927 1.84927,1.84927zM19.68503,22.76715c1.02326,0 1.84927,-0.82601 1.84927,-1.84927c0,-1.02326 -0.82601,-1.84927 -1.84927,-1.84927c-1.02326,0 -1.84927,0.82601 -1.84927,1.84927c0,1.02326 0.82601,1.84927 1.84927,1.84927zM23.98767,11.67152c-6.80532,0 -12.31615,5.52316 -12.31615,12.32848c0,6.80532 5.51083,12.32848 12.31615,12.32848c6.81765,0 12.34081,-5.52316 12.34081,-12.32848c0,-6.80532 -5.52316,-12.32848 -12.34081,-12.32848zM24,33.86279c-5.44919,0 -9.86279,-4.4136 -9.86279,-9.86279c0,-5.44919 4.4136,-9.86279 9.86279,-9.86279c5.44919,0 9.86279,4.4136 9.86279,9.86279c0,5.44919 -4.4136,9.86279 -9.86279,9.86279zM24,28.93139c-1.81845,0 -3.39033,-0.99861 -4.24716,-2.4657h-2.06502c0.98628,2.52117 3.43965,4.31497 6.31218,4.31497c2.87254,0 5.3259,-1.79379 6.31218,-4.31497h-2.06502c-0.85683,1.46709 -2.42871,2.4657 -4.24716,2.4657z" fill="none" stroke-width="0"></path><path d="M26.4657,20.91788c0,-1.02326 0.82601,-1.84927 1.84927,-1.84927c1.02326,0 1.84927,0.82601 1.84927,1.84927c0,1.02326 -0.82601,1.84927 -1.84927,1.84927c-1.02326,0 -1.84927,-0.82601 -1.84927,-1.84927zM17.83576,20.91788c0,-1.02326 0.82601,-1.84927 1.84927,-1.84927c1.02326,0 1.84927,0.82601 1.84927,1.84927c0,1.02326 -0.82601,1.84927 -1.84927,1.84927c-1.02326,0 -1.84927,-0.82601 -1.84927,-1.84927zM36.32848,24c0,6.80532 -5.52316,12.32848 -12.34081,12.32848c-6.80532,0 -12.31615,-5.52316 -12.31615,-12.32848c0,-6.80532 5.51083,-12.32848 12.31615,-12.32848c6.81765,0 12.34081,5.52316 12.34081,12.32848zM33.86279,24c0,-5.44919 -4.4136,-9.86279 -9.86279,-9.86279c-5.44919,0 -9.86279,4.4136 -9.86279,9.86279c0,5.44919 4.4136,9.86279 9.86279,9.86279c5.44919,0 9.86279,-4.4136 9.86279,-9.86279zM28.24716,26.4657h2.06502c-0.98628,2.52117 -3.43965,4.31497 -6.31218,4.31497c-2.87254,0 -5.3259,-1.79379 -6.31218,-4.31497h2.06502c0.85683,1.46709 2.42871,2.4657 4.24716,2.4657c1.81845,0 3.39033,-0.99861 4.24716,-2.4657z" fill="#ffffff" stroke-width="0"></path><path d="M2,24c0,-12.15026 9.84974,-22 22,-22c12.15026,0 22,9.84974 22,22c0,12.15026 -9.84974,22 -22,22c-12.15026,0 -22,-9.84974 -22,-22z" id="base 1 13 1" fill="none" stroke-width="1"></path><path d="M2,24c0,-12.15026 9.84974,-22 22,-22c12.15026,0 22,9.84974 22,22c0,12.15026 -9.84974,22 -22,22c-12.15026,0 -22,-9.84974 -22,-22z" id="base 1 9 1" fill="none" stroke-width="1"></path><path d="M2,24c0,-12.15026 9.84974,-22 22,-22c12.15026,0 22,9.84974 22,22c0,12.15026 -9.84974,22 -22,22c-12.15026,0 -22,-9.84974 -22,-22z" id="base 1 5 1" fill="none" stroke-width="1"></path><path d="M2,24c0,-12.15026 9.84974,-22 22,-22c12.15026,0 22,9.84974 22,22c0,12.15026 -9.84974,22 -22,22c-12.15026,0 -22,-9.84974 -22,-22z" id="base 1 1 1" fill="none" stroke-width="1"></path><g fill="#000000" stroke-width="1" font-family="Roboto, sans-serif" font-weight="normal" font-size="14" text-anchor="start"></g><rect x="2" y="2" width="44" height="22" fill="none" stroke-width="1"></rect><path d="M2,24v-22h44v22z" fill="none" stroke-width="1"></path><path d="M2,24v-22h44v22z" fill="none" stroke-width="1"></path><path d="M2,24v-22h44v22z" fill="none" stroke-width="1"></path><path d="M2,24v-22h44v22z" fill="none" stroke-width="1"></path><g fill="#000000" stroke-width="1" font-family="Roboto, sans-serif" font-weight="normal" font-size="14" text-anchor="start"></g><rect x="2" y="2" width="44" height="22" fill="none" stroke-width="1"></rect><path d="M2,24v-22h44v22z" fill="none" stroke-width="1"></path><path d="M2,24v-22h44v22z" fill="none" stroke-width="1"></path><path d="M2,24v-22h44v22z" fill="none" stroke-width="1"></path><path d="M2,24v-22h44v22z" fill="none" stroke-width="1"></path><g fill="#000000" stroke-width="1" font-family="Roboto, sans-serif" font-weight="normal" font-size="14" text-anchor="start"></g><rect x="2" y="2" width="44" height="22" fill="none" stroke-width="1"></rect><path d="M2,24v-22h44v22z" fill="none" stroke-width="1"></path><path d="M2,24v-22h44v22z" fill="none" stroke-width="1"></path><path d="M2,24v-22h44v22z" fill="none" stroke-width="1"></path><path d="M2,24v-22h44v22z" fill="none" stroke-width="1"></path><g fill="#000000" stroke-width="1" font-family="Roboto, sans-serif" font-weight="normal" font-size="14" text-anchor="start"></g><rect x="2" y="2" width="44" height="22" fill="none" stroke-width="1"></rect><path d="M2,24v-22h44v22z" fill="none" stroke-width="1"></path><path d="M2,24v-22h44v22z" fill="none" stroke-width="1"></path><path d="M2,24v-22h44v22z" fill="none" stroke-width="1"></path><path d="M2,24v-22h44v22z" fill="none" stroke-width="1"></path></g></svg>